<svg width="48" height="48" viewBox="0 0 48 48" fill="none" xmlns="http://www.w3.org/2000/svg">
<rect width="48" height="48" rx="24" fill="#4475F2"/>
<path d="M21.3419 15.6665L18.3252 18.6915" stroke="white" stroke-width="1.2" stroke-miterlimit="10" stroke-linecap="round" stroke-linejoin="round"/>
<path d="M26.6582 15.6665L29.6749 18.6915" stroke="white" stroke-width="1.2" stroke-miterlimit="10" stroke-linecap="round" stroke-linejoin="round"/>
<path d="M15.667 20.5417C15.667 19 16.492 18.875 17.517 18.875H30.4837C31.5087 18.875 32.3337 19 32.3337 20.5417C32.3337 22.3333 31.5087 22.2083 30.4837 22.2083H17.517C16.492 22.2083 15.667 22.3333 15.667 20.5417Z" stroke="white" stroke-width="1.2"/>
<path d="M22.1338 25.6665V28.6248" stroke="white" stroke-width="1.2" stroke-linecap="round"/>
<path d="M25.9668 25.6665V28.6248" stroke="white" stroke-width="1.2" stroke-linecap="round"/>
<path d="M16.917 22.3335L18.092 29.5335C18.3587 31.1502 19.0003 32.3335 21.3837 32.3335H26.4087C29.0003 32.3335 29.3837 31.2002 29.6837 29.6335L31.0837 22.3335" stroke="white" stroke-width="1.2" stroke-linecap="round"/>
</svg>
